# xmcd
#
# Track frame offsets: 
#        150
#        16916
#        39993
#        61847
#        90998
#        108802
#        134495
#        158749
#        177598
#        198510
#        220444
#        243236
#
# Disc length: 3573 seconds
#
# Revision: 0
# Processed by: cddbd v1.5.2PL0 Copyright (c) Steve Scherf et al.
# Submitted via: ExactAudioCopyFreeDBPlugin 1.0
#
DISCID=9a0df30c
DTITLE=Monte Montgomery - Tethered
DYEAR=2012
DGENRE=Acoustic
TTITLE0=Mighty Fist Of Love
TTITLE1=Welcome To Greentown
TTITLE2=Blinded By The Sun
TTITLE3=Never Forget (Sophie)
TTITLE4=I Couldn't Leave You If I Tried
TTITLE5=I Believe In Angels
TTITLE6=All We Are Is Love
TTITLE7=I Hope Friday Never Comes
TTITLE8=Statues
TTITLE9=While Love Remains
TTITLE10=Out Of Our Own Way
TTITLE11=6 String Wooden Friend
EXTD=
EXTT0=
EXTT1=
EXTT2=
EXTT3=
EXTT4=
EXTT5=
EXTT6=
EXTT7=
EXTT8=
EXTT9=
EXTT10=
EXTT11=
PLAYORDER=
